<svg xmlns="http://www.w3.org/2000/svg" viewBox="0 0 391.54 170.15">
    <defs>
        <style>.cls-1,.cls-3{fill:none;stroke:#231916;}.cls-1{stroke-linecap:round;stroke-linejoin:round;stroke-width:2px;}.cls-2{fill:#231916;}.cls-3{stroke-miterlimit:10;}</style>
    </defs>
    <path class="cls-1" d="M217.49,161.46a8.68,8.68,0,0,0,6.37,2.65h9V151.56h-18v3.53A8.7,8.7,0,0,0,217.49,161.46Z" transform="translate(-13.67 -8.19)"/>
    <path class="cls-1" d="M288.56,161.46a8.68,8.68,0,0,0,6.37,2.65h9V151.56h-18v3.53A8.7,8.7,0,0,0,288.56,161.46Z" transform="translate(-13.67 -8.19)"/>
    <path class="cls-1" d="M172.32,161.46a8.63,8.63,0,0,0,6.39,2.65h9V151.56h-18v3.53A8.71,8.71,0,0,0,172.32,161.46Z" transform="translate(-13.67 -8.19)"/>
    <path class="cls-1" d="M394.81,125.18a8.68,8.68,0,0,0-6.37-2.65h-9v28h18v-19A8.71,8.71,0,0,0,394.81,125.18Z" transform="translate(-13.67 -8.19)"/>
    <path class="cls-2" d="M187.73,170.39h-9a8.63,8.63,0,0,1-6.39-2.65,8.73,8.73,0,0,1-2.62-6.37v-3.54h-6.77v3.6a15.11,15.11,0,0,0,4.62,11.13,15.29,15.29,0,0,0,11.16,4.59h12.4a3.25,3.25,0,0,0,2.4-1,3.3,3.3,0,0,0,1-2.37V157.83h-6.77Z" transform="translate(-13.67 -8.19)"/>
    <path class="cls-2" d="M169.7,111.13a9,9,0,0,1,9-9,9.07,9.07,0,0,1,6.54,2.76,3.13,3.13,0,0,0,2.37,1,3.38,3.38,0,0,0,3.38-3.38,3.33,3.33,0,0,0-1-2.37,15.4,15.4,0,0,0-11.33-4.85,15.77,15.77,0,0,0-15.78,15.78v40.49h6.77Z" transform="translate(-13.67 -8.19)"/>
    <path class="cls-1" d="M193.54,132.41a3.17,3.17,0,0,0-2.37-1h-6.82A3.38,3.38,0,0,0,181,134.8a3.3,3.3,0,0,0,1,2.37,3.17,3.17,0,0,0,2.39,1h3.38v13.38h6.77V134.8A3.28,3.28,0,0,0,193.54,132.41Z" transform="translate(-13.67 -8.19)"/>
    <path class="cls-2" d="M235,120.26a15.72,15.72,0,0,0-22.43.17,3.35,3.35,0,0,0-1,2.37,3.38,3.38,0,0,0,3.38,3.38,3.13,3.13,0,0,0,2.37-1,9,9,0,0,1,6.48-2.7,8.65,8.65,0,0,1,6.4,2.65,8.93,8.93,0,0,1,2.68,6.37v20.08h6.76V131.48A15.49,15.49,0,0,0,235,120.26Z" transform="translate(-13.67 -8.19)"/>
    <path class="cls-2" d="M232.88,170.39h-9a9,9,0,0,1-9-9v-3.54h-6.76v3.54a15.77,15.77,0,0,0,15.78,15.78h12.4a3.35,3.35,0,0,0,3.38-3.38V157.83h-6.76Z" transform="translate(-13.67 -8.19)"/>
    <path class="cls-1" d="M214.84,150.53a8.72,8.72,0,0,1,2.65-6.37,8.52,8.52,0,0,1,5.58-2.59,3.38,3.38,0,0,0,2.09-1,3.21,3.21,0,0,0,1-2.37,3.25,3.25,0,0,0-1-2.36,3.64,3.64,0,0,0-2.74-1,15.81,15.81,0,0,0-14.31,15.73v1h6.76Z" transform="translate(-13.67 -8.19)"/>
    <path class="cls-2" d="M253.17,173.83a3.38,3.38,0,0,0,6.76,0v-16h-6.76Z" transform="translate(-13.67 -8.19)"/>
    <path class="cls-2" d="M261.9,125.5a6.56,6.56,0,0,1,4.79-2,3.34,3.34,0,0,0,2.46-1,3.26,3.26,0,0,0,1-2.39,3.3,3.3,0,0,0-1-2.4,3.37,3.37,0,0,0-2.46-1,13.55,13.55,0,0,0-13.52,13.52v21.27h6.76V130.29A6.56,6.56,0,0,1,261.9,125.5Z" transform="translate(-13.67 -8.19)"/>
    <path class="cls-2" d="M285.91,132.49a9,9,0,0,1,8.18-9,3.51,3.51,0,0,0,3.1-3.38,3.27,3.27,0,0,0-1-2.4,3.57,3.57,0,0,0-2.62-1,14.79,14.79,0,0,0-9.81,4.56,15.21,15.21,0,0,0-4.62,11.16v19.07h6.76Z" transform="translate(-13.67 -8.19)"/>
    <path class="cls-2" d="M304,170.39h-9a9,9,0,0,1-9-9v-3.54h-6.76v3.54a15.77,15.77,0,0,0,15.78,15.78h12.4a3.35,3.35,0,0,0,3.38-3.38V157.83H304Z" transform="translate(-13.67 -8.19)"/>
    <path class="cls-2" d="M309.73,97.46a3.3,3.3,0,0,0-2.4-1A3.36,3.36,0,0,0,304,99.86v51.7h6.76V99.86A3.3,3.3,0,0,0,309.73,97.46Z" transform="translate(-13.67 -8.19)"/>
    <path class="cls-2" d="M335.85,125.05a9,9,0,0,1,15.39,6.37v10.15h-7.89A3.36,3.36,0,0,0,340,145a3.23,3.23,0,0,0,1,2.39,3.27,3.27,0,0,0,2.4,1h11.27a3.49,3.49,0,0,0,2.42-1.07,3.28,3.28,0,0,0,1-2.31V131.42a15.78,15.78,0,1,0-31.56,0v20.14h6.76V131.42A8.68,8.68,0,0,1,335.85,125.05Z" transform="translate(-13.67 -8.19)"/>
    <path class="cls-2" d="M326.44,162.55a15.78,15.78,0,0,0,26.94,11.16,3.71,3.71,0,0,0,1.07-2.53,3.36,3.36,0,0,0-3.38-3.38,3.37,3.37,0,0,0-2.48,1.07,9,9,0,0,1-15.39-6.37v-4.67h-6.76Z" transform="translate(-13.67 -8.19)"/>
    <path class="cls-1" d="M397.45,157.83v15.94a3.39,3.39,0,1,0,6.77,0V157.83Z" transform="translate(-13.67 -8.19)"/>
    <path class="cls-2" d="M372.65,173.77a3.39,3.39,0,1,0,6.77,0V157.83h-6.77Z" transform="translate(-13.67 -8.19)"/>
    <path class="cls-2" d="M404.22,132.55a15.77,15.77,0,0,0-15.78-15.78H376a3.36,3.36,0,0,0-3.39,3.38v31.41h6.77v-28h9a9,9,0,0,1,9,9v19h6.77Z" transform="translate(-13.67 -8.19)"/>
    <path class="cls-1" d="M275.46,74.36A8.71,8.71,0,0,0,281.83,77h9V64.45h-18V68A8.68,8.68,0,0,0,275.46,74.36Z" transform="translate(-13.67 -8.19)"/>
    <path class="cls-2" d="M14.67,75.45A15.18,15.18,0,0,0,19.3,86.61a15.21,15.21,0,0,0,11.16,4.62,15.4,15.4,0,0,0,11.32-4.85,3.4,3.4,0,0,0,0-4.76,3.27,3.27,0,0,0-2.4-1,3.22,3.22,0,0,0-2.37,1,9,9,0,0,1-6.53,2.82,9,9,0,0,1-9-9V70.73H14.67Z" transform="translate(-13.67 -8.19)"/>
    <path class="cls-2" d="M24.06,17.65A8.68,8.68,0,0,1,30.46,15,9,9,0,0,1,37,17.77a3.15,3.15,0,0,0,2.37,1,3.35,3.35,0,0,0,3.38-3.38,3.35,3.35,0,0,0-1-2.37A15.39,15.39,0,0,0,30.46,8.19,15.21,15.21,0,0,0,19.3,12.81,15.18,15.18,0,0,0,14.67,24V64.45h6.77V24A8.73,8.73,0,0,1,24.06,17.65Z" transform="translate(-13.67 -8.19)"/>
    <path class="cls-2" d="M82.2,34.34A15.24,15.24,0,0,0,71,29.72H62v-17a3.38,3.38,0,0,0-3.38-3.38,3.27,3.27,0,0,0-2.4,1,3.23,3.23,0,0,0-1,2.39v51.7H62v-28h9a9,9,0,0,1,9,9v19h6.77v-19A15.21,15.21,0,0,0,82.2,34.34Z" transform="translate(-13.67 -8.19)"/>
    <path class="cls-2" d="M80.05,86.66a3.39,3.39,0,1,0,6.77,0V70.73H80.05Z" transform="translate(-13.67 -8.19)"/>
    <path class="cls-2" d="M55.25,86.66a3.39,3.39,0,1,0,6.77,0V70.73H55.25Z" transform="translate(-13.67 -8.19)"/>
    <path class="cls-2" d="M106.94,20.64a4.33,4.33,0,0,0,3.18-1.32,4.48,4.48,0,0,0,0-6.37,4.51,4.51,0,0,0-7.69,3.18,4.51,4.51,0,0,0,4.51,4.51Z" transform="translate(-13.67 -8.19)"/>
    <path class="cls-2" d="M103.56,86.66a3.38,3.38,0,1,0,6.76,0V70.73h-6.76Z" transform="translate(-13.67 -8.19)"/>
    <path class="cls-1" d="M109.33,30.65a3.23,3.23,0,0,0-2.39-1,3.27,3.27,0,0,0-2.4,1,3.22,3.22,0,0,0-1,2.39V64.45h6.76V33A3.23,3.23,0,0,0,109.33,30.65Z" transform="translate(-13.67 -8.19)"/>
    <path class="cls-2" d="M175.76,34.28a15.24,15.24,0,0,0-11.16-4.62H131.91a3.27,3.27,0,0,0-2.4,1,3.23,3.23,0,0,0-1,2.39V64.45h6.77v-28h15.78v28h6.76v-28h6.77a9,9,0,0,1,9,9v19h6.77v-19A15.21,15.21,0,0,0,175.76,34.28Z" transform="translate(-13.67 -8.19)"/>
    <path class="cls-1" d="M128.52,86.66a3.39,3.39,0,1,0,6.77,0V70.73h-6.77Z" transform="translate(-13.67 -8.19)"/>
    <path class="cls-1" d="M151.07,86.66a3.27,3.27,0,0,0,1,2.4,3.23,3.23,0,0,0,2.39,1,3.36,3.36,0,0,0,3.38-3.39V70.73h-6.76Z" transform="translate(-13.67 -8.19)"/>
    <path class="cls-1" d="M173.61,86.66a3.39,3.39,0,1,0,6.77,0V70.73h-6.77Z" transform="translate(-13.67 -8.19)"/>
    <path class="cls-2" d="M195,75.45A15.78,15.78,0,0,0,222,86.61,3.71,3.71,0,0,0,223,84.07a3.36,3.36,0,0,0-3.38-3.38,3.43,3.43,0,0,0-2.48,1.07,9,9,0,0,1-15.38-6.37V70.73H195Z" transform="translate(-13.67 -8.19)"/>
    <path class="cls-2" d="M204.44,38a9,9,0,0,1,15.39,6.36V54.46h-7.89a3.38,3.38,0,1,0,0,6.76h11.27a3.49,3.49,0,0,0,2.43-1.07,3.24,3.24,0,0,0,1-2.31V44.31a15.78,15.78,0,1,0-31.56,0V64.45h6.77V44.31A8.67,8.67,0,0,1,204.44,38Z" transform="translate(-13.67 -8.19)"/>
    <path class="cls-2" d="M240.12,86.72a3.38,3.38,0,1,0,6.76,0v-16h-6.76Z" transform="translate(-13.67 -8.19)"/>
    <path class="cls-2" d="M248.86,38.4a6.5,6.5,0,0,1,4.79-2,3.36,3.36,0,0,0,2.45-1,3.27,3.27,0,0,0,1-2.4,3.23,3.23,0,0,0-1-2.39,3.33,3.33,0,0,0-2.45-1,13.55,13.55,0,0,0-13.53,13.53V64.45h6.76V43.19A6.5,6.5,0,0,1,248.86,38.4Z" transform="translate(-13.67 -8.19)"/>
    <path class="cls-2" d="M292.93,33.15a15.72,15.72,0,0,0-22.43.17,3.35,3.35,0,0,0-1,2.37,3.36,3.36,0,0,0,3.38,3.38,3.15,3.15,0,0,0,2.37-1,8.94,8.94,0,0,1,6.48-2.71,8.69,8.69,0,0,1,6.4,2.65,9,9,0,0,1,2.68,6.37V64.45h6.76V44.37A15.5,15.5,0,0,0,292.93,33.15Z" transform="translate(-13.67 -8.19)"/>
    <path class="cls-2" d="M290.85,83.28h-9a9,9,0,0,1-9-9V70.73h-6.76v3.53a15.79,15.79,0,0,0,15.78,15.79h12.4a3.23,3.23,0,0,0,2.39-1,3.27,3.27,0,0,0,1-2.4V70.73h-6.76Z" transform="translate(-13.67 -8.19)"/>
    <path class="cls-1" d="M272.81,63.42a8.68,8.68,0,0,1,2.65-6.37A8.52,8.52,0,0,1,281,54.46a3.35,3.35,0,0,0,2.09-1,3.21,3.21,0,0,0,.95-2.36,3.33,3.33,0,0,0-1-2.37,3.63,3.63,0,0,0-2.74-1,15.79,15.79,0,0,0-14.31,15.72v1h6.76Z" transform="translate(-13.67 -8.19)"/>
    <line class="cls-1" x1="115.82" y1="56.47" x2="166.7" y2="62.54"/>
    <line class="cls-1" x1="165.75" y1="56.38" x2="114.85" y2="62.54"/>
    <line class="cls-1" x1="1" y1="56.26" x2="7.76" y2="62.54"/>
    <line class="cls-1" x1="1" y1="62.54" x2="7.76" y2="56.26"/>
    <path class="cls-3" d="M55.25,64.45" transform="translate(-13.67 -8.19)"/>
    <line class="cls-1" x1="48.34" y1="56.26" x2="48.34" y2="62.54"/>
    <line class="cls-1" x1="66.38" y1="56.26" x2="66.38" y2="62.54"/>
</svg>