<?xml version="1.0" encoding="utf-8"?><!DOCTYPE svg PUBLIC "-//W3C//DTD SVG 1.1//EN" "http://www.w3.org/Graphics/SVG/1.1/DTD/svg11.dtd"><svg xmlns="http://www.w3.org/2000/svg" viewBox="0 0 49 49" shape-rendering="crispEdges"><path fill="#ffffff" d="M0 0h49v49H0z"/><path stroke="#000000" d="M4 4.5h7m1 0h2m1 0h1m3 0h1m1 0h3m1 0h5m2 0h2m1 0h2m1 0h7M4 5.5h1m5 0h1m1 0h3m3 0h1m1 0h1m1 0h1m1 0h1m2 0h3m2 0h3m3 0h1m5 0h1M4 6.5h1m1 0h3m1 0h1m3 0h1m1 0h1m3 0h2m1 0h2m3 0h1m2 0h2m1 0h1m1 0h1m1 0h1m1 0h3m1 0h1M4 7.5h1m1 0h3m1 0h1m1 0h1m3 0h1m1 0h1m4 0h1m1 0h1m2 0h1m1 0h2m1 0h1m1 0h2m1 0h1m1 0h3m1 0h1M4 8.5h1m1 0h3m1 0h1m2 0h1m3 0h3m1 0h1m1 0h1m1 0h2m1 0h1m1 0h6m2 0h1m1 0h3m1 0h1M4 9.5h1m5 0h1m3 0h2m3 0h1m2 0h4m4 0h1m2 0h1m1 0h2m1 0h1m5 0h1M4 10.5h7m1 0h1m1 0h1m1 0h1m1 0h1m1 0h1m1 0h1m1 0h1m1 0h1m1 0h1m1 0h1m1 0h1m1 0h1m1 0h1m1 0h7M12 11.5h3m1 0h1m1 0h1m1 0h2m4 0h1m1 0h1m4 0h1m2 0h1M4 12.5h1m1 0h2m1 0h3m1 0h2m1 0h2m2 0h3m1 0h2m1 0h1m2 0h1m1 0h2m2 0h1m1 0h1m2 0h1m1 0h2M4 13.5h1m2 0h3m1 0h2m1 0h1m1 0h3m1 0h2m1 0h3m1 0h1m1 0h1m2 0h1m2 0h1m1 0h4m1 0h1M7 14.5h1m2 0h2m1 0h1m1 0h1m4 0h2m2 0h1m1 0h3m8 0h1m2 0h1m1 0h2M4 15.5h1m7 0h2m1 0h2m1 0h2m2 0h1m3 0h2m1 0h1m1 0h1m2 0h1m1 0h1m1 0h1m4 0h2M6 16.5h5m1 0h4m1 0h1m3 0h1m2 0h1m1 0h1m1 0h3m1 0h2m1 0h2m4 0h2m1 0h1M7 17.5h2m4 0h1m1 0h2m2 0h1m1 0h2m1 0h7m2 0h4m1 0h1m4 0h2M6 18.5h1m2 0h2m3 0h1m1 0h4m1 0h4m2 0h1m2 0h1m3 0h3m1 0h4m1 0h2M7 19.5h2m2 0h1m2 0h1m1 0h3m1 0h1m1 0h1m2 0h3m2 0h2m4 0h1m1 0h2m1 0h1M5 20.5h1m4 0h4m1 0h1m1 0h3m2 0h1m1 0h3m2 0h1m2 0h1m1 0h2m4 0h1m2 0h2M4 21.5h1m2 0h3m2 0h1m1 0h1m2 0h1m1 0h2m1 0h1m1 0h2m1 0h5m2 0h1m2 0h1m1 0h1m1 0h1M4 22.5h3m2 0h3m1 0h1m1 0h2m2 0h1m2 0h1m3 0h1m4 0h2m1 0h1m1 0h2m2 0h2M4 23.5h3m8 0h4m2 0h2m2 0h1m5 0h4m1 0h2m1 0h1m1 0h4M4 24.5h4m1 0h3m1 0h1m1 0h1m13 0h1m1 0h5m1 0h2m1 0h1m1 0h1m1 0h1M6 25.5h1m1 0h2m2 0h3m1 0h2m2 0h1m2 0h2m2 0h1m1 0h2m1 0h1m2 0h2m1 0h7M4 26.5h2m4 0h1m1 0h2m1 0h1m1 0h1m1 0h1m6 0h4m2 0h2m2 0h1m4 0h1m1 0h1M4 27.5h2m5 0h3m4 0h1m1 0h1m1 0h3m4 0h3m3 0h5m3 0h1M6 28.5h1m2 0h5m6 0h5m1 0h1m1 0h3m2 0h2m4 0h1m2 0h3M4 29.5h1m1 0h3m2 0h2m1 0h1m3 0h1m2 0h1m1 0h1m2 0h1m1 0h1m1 0h2m1 0h4m1 0h1m2 0h2m1 0h1M6 30.5h2m2 0h1m1 0h1m1 0h6m1 0h1m1 0h4m2 0h2m1 0h1m1 0h3m2 0h1m1 0h1m1 0h2M6 31.5h1m1 0h1m5 0h3m2 0h2m1 0h1m2 0h1m4 0h2m2 0h3m2 0h3m1 0h1M6 32.5h5m3 0h2m1 0h4m1 0h1m1 0h6m4 0h4m1 0h3m1 0h1M5 33.5h2m2 0h1m4 0h1m3 0h1m4 0h2m1 0h1m2 0h2m3 0h1m1 0h2m4 0h1M4 34.5h1m3 0h3m1 0h2m1 0h1m1 0h2m1 0h1m2 0h1m2 0h1m3 0h1m5 0h4m1 0h3M6 35.5h1m1 0h2m2 0h2m2 0h1m4 0h3m2 0h2m3 0h3m4 0h1m2 0h4M5 36.5h2m1 0h1m1 0h2m4 0h2m2 0h3m2 0h1m4 0h2m1 0h8m1 0h2M12 37.5h1m2 0h5m1 0h1m1 0h3m1 0h1m1 0h4m1 0h1m1 0h1m3 0h2m2 0h1M4 38.5h7m1 0h1m2 0h2m2 0h1m2 0h1m4 0h1m1 0h1m2 0h1m2 0h2m1 0h1m1 0h4M4 39.5h1m5 0h1m1 0h2m1 0h1m3 0h1m1 0h1m1 0h1m3 0h1m8 0h1m3 0h1M4 40.5h1m1 0h3m1 0h1m3 0h1m2 0h1m1 0h1m5 0h1m2 0h1m1 0h1m3 0h1m1 0h5m1 0h1m1 0h1M4 41.5h1m1 0h3m1 0h1m1 0h3m1 0h2m2 0h1m2 0h2m1 0h1m1 0h4m1 0h1m2 0h1m3 0h2m1 0h1M4 42.5h1m1 0h3m1 0h1m1 0h1m6 0h1m1 0h1m1 0h2m1 0h1m1 0h3m2 0h1m5 0h1m3 0h2M4 43.5h1m5 0h1m7 0h2m1 0h1m3 0h1m1 0h2m5 0h4m2 0h2m1 0h1M4 44.5h7m1 0h1m2 0h4m1 0h1m1 0h1m1 0h4m1 0h1m2 0h1m2 0h2m1 0h1m4 0h1"/></svg>
