<?xml version="1.0" encoding="UTF-8" standalone="no"?>
<!DOCTYPE svg PUBLIC "-//W3C//DTD SVG 1.1//EN" "http://www.w3.org/Graphics/SVG/1.1/DTD/svg11.dtd">
<svg version="1.1" xmlns="http://www.w3.org/2000/svg" xmlns:xlink="http://www.w3.org/1999/xlink" preserveAspectRatio="xMidYMid meet" viewBox="1.6305532358973212 180.9357449065577 937.5026373945867 139.0642550934423" width="937.5" height="139.06"><defs><path d="M644.31 296.75C645.29 296.75 650.2 296.75 659.02 296.75L659.02 276.24L629.6 276.24C629.6 279.7 629.6 281.62 629.6 282.01C629.54 285.92 631.1 289.69 633.9 292.42C636.62 295.24 640.39 296.81 644.31 296.75Z" id="fXLLDpjN7"></path><path d="M760.48 296.75C761.46 296.75 766.37 296.75 775.19 296.75L775.19 276.24L745.77 276.24C745.77 279.7 745.77 281.62 745.77 282.01C745.71 285.92 747.27 289.69 750.07 292.42C752.79 295.24 756.56 296.81 760.48 296.75Z" id="gGH8eIOmv"></path><path d="M570.51 296.75C571.49 296.75 576.4 296.75 585.22 296.75L585.22 276.24L555.8 276.24C555.8 279.7 555.8 281.62 555.8 282.01C555.73 285.92 557.28 289.68 560.07 292.42C562.79 295.26 566.58 296.83 570.51 296.75Z" id="aPESWk7Zf"></path><path d="M913.33 228.78C912.35 228.78 907.45 228.78 898.62 228.78L898.62 274.55L928.04 274.55C928.04 255.92 928.04 245.57 928.04 243.5C928.09 239.59 926.54 235.84 923.74 233.12C921.02 230.3 917.25 228.73 913.33 228.78Z" id="aRuoT8pN"></path><path d="M585.26 307.02C576.43 307.02 571.53 307.02 570.55 307.02C566.61 307.09 562.83 305.52 560.1 302.68C557.31 299.95 555.76 296.18 555.82 292.27C555.82 291.89 555.82 289.96 555.82 286.49L544.75 286.49C544.75 290.02 544.75 291.98 544.75 292.37C544.64 299.22 547.37 305.81 552.3 310.56C557.1 315.46 563.69 318.17 570.55 318.07C572.57 318.07 588.79 318.07 590.81 318.07C592.29 318.09 593.71 317.5 594.74 316.43C595.78 315.41 596.37 314.02 596.37 312.56C596.37 310.82 596.37 302.13 596.37 286.49L585.31 286.49L585.26 307.02Z" id="a6ifNz65Eg"></path><path d="M555.79 210.15C555.79 202.03 562.37 195.44 570.5 195.44C574.52 195.43 578.38 197.06 581.19 199.95C582.18 201.03 583.59 201.62 585.06 201.59C588.11 201.59 590.59 199.11 590.59 196.06C590.58 194.6 589.99 193.21 588.95 192.19C584.15 187.08 577.44 184.21 570.43 184.26C556.19 184.25 544.65 195.78 544.64 210.02C544.64 210.03 544.64 210.04 544.64 210.05C544.64 214.46 544.64 236.53 544.64 276.24L555.7 276.24C555.75 240.99 555.77 218.96 555.79 210.15Z" id="aAgtYXuc"></path><path d="M590.88 243.3C589.76 243.3 580.85 243.3 579.73 243.3C576.69 243.33 574.25 245.8 574.26 248.84C574.25 250.3 574.84 251.7 575.89 252.71C576.9 253.79 578.32 254.39 579.8 254.35C580.17 254.35 582.01 254.35 585.32 254.35L585.32 276.22L596.39 276.22C596.39 259.79 596.39 250.67 596.39 248.84C596.4 247.37 595.81 245.96 594.75 244.93C593.75 243.87 592.34 243.27 590.88 243.3Z" id="a1hoBhXAiG"></path><path d="M626.18 225.02C626.07 225.13 625.97 225.24 625.86 225.35C624.82 226.37 624.23 227.77 624.22 229.23C624.22 232.28 626.7 234.75 629.75 234.75C631.22 234.79 632.63 234.19 633.62 233.12C636.41 230.27 640.23 228.68 644.22 228.7C648.15 228.63 651.95 230.2 654.68 233.03C657.48 235.78 659.05 239.53 659.06 243.45C659.06 245.64 659.06 256.58 659.06 276.27L670.11 276.27C670.11 256.56 670.11 245.6 670.11 243.41C670.18 236.52 667.44 229.9 662.52 225.07C652.5 215.03 636.23 215 626.18 225.02Z" id="a11VpCiecX"></path><path d="M659.06 307.02C650.23 307.02 645.33 307.02 644.35 307.02C636.22 307.02 629.64 300.43 629.64 292.3C629.64 291.92 629.64 289.99 629.64 286.52L618.59 286.52C618.59 289.99 618.59 291.92 618.59 292.3C618.58 306.54 630.11 318.09 644.35 318.1C644.36 318.1 644.37 318.1 644.38 318.1C646.41 318.1 662.62 318.1 664.65 318.1C667.67 318.13 670.15 315.7 670.17 312.67C670.17 312.64 670.17 312.61 670.17 312.57C670.17 310.83 670.17 302.14 670.17 286.49L659.12 286.49L659.06 307.02Z" id="a3R7AxI9"></path><path d="M629.57 274.55C629.52 270.63 631.09 266.87 633.9 264.14C636.31 261.64 639.56 260.13 643.02 259.91C644.32 259.78 645.53 259.2 646.44 258.27C647.5 257.27 648.09 255.86 648.07 254.4C648.08 252.94 647.49 251.55 646.44 250.54C645.24 249.4 643.62 248.8 641.96 248.91C628.7 250.17 618.58 261.3 618.57 274.62C618.57 274.73 618.57 275.27 618.57 276.25L629.62 276.25C629.59 275.35 629.58 274.78 629.57 274.55Z" id="e3sToSni5"></path><path d="M692.22 312.64C692.22 315.69 694.7 318.16 697.75 318.16C700.8 318.16 703.27 315.69 703.27 312.64C703.27 310.89 703.27 302.18 703.27 286.49L692.22 286.49C692.22 300.43 692.22 309.15 692.22 312.64Z" id="g1Lm7wM3h4"></path><path d="M714.32 230.37C715.83 230.4 717.29 229.81 718.34 228.74C719.4 227.72 720 226.3 719.98 224.83C719.99 223.35 719.4 221.94 718.34 220.91C717.28 219.83 715.83 219.24 714.32 219.27C702.13 219.3 692.25 229.18 692.22 241.37C692.22 243.69 692.22 255.28 692.22 276.14L703.27 276.14C703.27 255.34 703.27 243.78 703.27 241.47C703.23 238.53 704.39 235.7 706.49 233.64C708.54 231.52 711.37 230.34 714.32 230.37Z" id="b4nrzUaqj5"></path><path d="M745.74 245.07C745.71 237.44 751.51 231.05 759.11 230.35C761.93 230.02 764.09 227.67 764.18 224.83C764.2 223.35 763.61 221.93 762.54 220.91C761.4 219.8 759.85 219.21 758.26 219.27C752.17 219.64 746.44 222.3 742.22 226.73C737.3 231.5 734.56 238.1 734.67 244.97C734.67 247.05 734.67 257.44 734.67 276.14L745.72 276.14C745.73 259.57 745.74 249.21 745.74 245.07Z" id="aOFKFcUdD"></path><path d="M775.31 307.02C766.48 307.02 761.58 307.02 760.6 307.02C752.47 307.02 745.89 300.43 745.89 292.3C745.89 291.92 745.89 289.99 745.89 286.52L734.84 286.52C734.84 289.99 734.84 291.92 734.84 292.3C734.83 306.54 746.36 318.09 760.6 318.1C760.61 318.1 760.62 318.1 760.63 318.1C762.66 318.1 778.87 318.1 780.9 318.1C783.92 318.13 786.4 315.7 786.42 312.67C786.42 312.64 786.42 312.61 786.42 312.57C786.42 310.83 786.42 302.14 786.42 286.49L775.31 286.49L775.31 307.02Z" id="i5PGfdvNsr"></path><path d="M780.75 186.17C777.72 186.2 775.28 188.68 775.31 191.71C775.31 191.72 775.31 191.72 775.31 191.73C775.31 197.36 775.31 225.53 775.31 276.24L786.36 276.24C786.36 225.53 786.36 197.36 786.36 191.73C786.36 190.25 785.75 188.83 784.67 187.81C783.65 186.75 782.23 186.16 780.75 186.17Z" id="crqNxui6q"></path><path d="M848.17 232.82C850.97 235.59 852.54 239.38 852.53 243.32C852.53 244.42 852.53 249.95 852.53 259.91C844.79 259.91 840.49 259.91 839.63 259.91C836.6 259.92 834.14 262.38 834.15 265.41C834.15 265.45 834.15 265.48 834.15 265.51C834.13 266.99 834.72 268.4 835.79 269.42C836.81 270.48 838.23 271.08 839.71 271.05C841.55 271.05 856.29 271.05 858.13 271.05C859.63 271.01 861.05 270.39 862.09 269.31C863.11 268.31 863.7 266.96 863.72 265.53C863.72 263.31 863.72 245.54 863.72 243.32C863.72 229.07 852.17 217.52 837.93 217.52C823.68 217.52 812.14 229.07 812.14 243.32C812.14 245.51 812.14 256.48 812.14 276.24L823.18 276.24C823.18 256.48 823.18 245.51 823.18 243.32C823.09 239.42 824.6 235.65 827.37 232.9C833.09 227.14 842.41 227.1 848.17 232.82Z" id="fbZPdXfJsR"></path><path d="M811.99 294.2C811.98 308.45 823.53 320 837.78 320C844.62 320 851.18 317.28 856.02 312.44C857.11 311.34 857.74 309.86 857.77 308.31C857.79 305.27 855.35 302.8 852.31 302.78C852.29 302.78 852.27 302.78 852.25 302.78C850.71 302.77 849.24 303.41 848.19 304.53C842.47 310.3 833.16 310.34 827.39 304.62C824.59 301.84 823.02 298.06 823.04 294.12C823.04 293.61 823.04 291.07 823.04 286.49L811.99 286.49C811.99 290.6 811.99 293.17 811.99 294.2Z" id="bdjF629qF"></path><path d="M928.06 286.49C928.06 302.12 928.06 310.8 928.06 312.54C927.89 315.6 930.24 318.21 933.29 318.37C936.35 318.54 938.96 316.2 939.13 313.14C939.14 312.94 939.14 312.74 939.13 312.54C939.13 310.8 939.13 302.12 939.13 286.49L928.06 286.49Z" id="b1NMe6SdyC"></path><path d="M887.52 312.54C887.36 315.6 889.7 318.21 892.75 318.37C895.81 318.54 898.42 316.2 898.59 313.14C898.6 312.94 898.6 312.74 898.59 312.54C898.59 310.8 898.59 302.12 898.59 286.49L887.52 286.49C887.52 300.38 887.52 309.07 887.52 312.54Z" id="a2u6yO6x03"></path><path d="M939.13 245.16C939.13 230.93 927.6 219.38 913.36 219.37C913.35 219.37 913.34 219.37 913.33 219.37C911.3 219.37 895.03 219.37 893 219.37C889.96 219.34 887.48 221.78 887.46 224.81C887.46 224.84 887.46 224.87 887.46 224.89C887.46 228.32 887.46 245.43 887.46 276.24L898.52 276.24L898.52 230.47C907.35 230.47 912.25 230.47 913.23 230.47C921.36 230.47 927.94 237.05 927.94 245.18C927.94 247.25 927.94 257.6 927.94 276.24L939.01 276.24C939.07 259.66 939.11 249.31 939.13 245.16Z" id="b8KHglRWM"></path><path d="M438.33 293.41C439.31 293.41 444.21 293.41 453.04 293.41L453.04 272.9L423.62 272.9C423.62 276.38 423.62 278.32 423.62 278.7C423.55 282.61 425.11 286.37 427.91 289.1C430.64 291.91 434.41 293.47 438.33 293.41Z" id="b2XrdMGGca"></path><path d="M1.63 290.88C1.52 297.75 4.26 304.35 9.2 309.12C13.98 314.05 20.58 316.78 27.44 316.67C34.45 316.72 41.15 313.85 45.95 308.75C48.07 306.58 48.07 303.13 45.95 300.97C44.92 299.9 43.5 299.31 42.02 299.33C40.56 299.31 39.16 299.91 38.15 300.97C35.38 303.9 31.52 305.57 27.48 305.57C19.35 305.57 12.77 298.99 12.77 290.86C12.77 290.35 12.77 287.78 12.77 283.16L1.63 283.16C1.63 287.28 1.63 289.85 1.63 290.88Z" id="a5vl2YsDHV"></path><path d="M27.44 192.07C31.48 192.05 35.34 193.69 38.13 196.6C39.13 197.67 40.54 198.26 42.01 198.23C45.03 198.26 47.51 195.83 47.53 192.81C47.53 192.77 47.53 192.74 47.53 192.71C47.53 191.25 46.94 189.86 45.9 188.83C41.11 183.76 34.42 180.9 27.44 180.94C20.58 180.83 13.98 183.56 9.2 188.49C4.25 193.27 1.51 199.9 1.63 206.78C1.63 211.19 1.63 233.23 1.63 272.9L12.7 272.9C12.7 233.23 12.7 211.19 12.7 206.78C12.65 202.88 14.2 199.13 16.98 196.4C19.72 193.57 23.51 192 27.44 192.07Z" id="d29ZC6pMKL"></path><path d="M93.71 216.13C92.73 216.13 87.83 216.13 79 216.13C79 199.46 79 190.2 79 188.34C79 185.29 76.53 182.82 73.47 182.82C73.47 182.82 73.47 182.82 73.47 182.82C72 182.8 70.58 183.39 69.55 184.45C68.48 185.47 67.89 186.89 67.92 188.36C67.92 193.99 67.92 222.16 67.92 272.87L79 272.87L79 227.1C87.83 227.1 92.73 227.1 93.71 227.1C101.83 227.1 108.42 233.69 108.42 241.81C108.42 243.88 108.42 254.23 108.42 272.87L119.49 272.87C119.49 254.23 119.49 243.88 119.49 241.81C119.59 235 116.89 228.45 112.02 223.68C107.22 218.74 100.59 216.01 93.71 216.13Z" id="b1M9N1GhL7"></path><path d="M108.5 309.2C108.34 312.26 110.68 314.87 113.74 315.04C116.79 315.2 119.4 312.86 119.57 309.81C119.58 309.6 119.58 309.4 119.57 309.2C119.57 307.47 119.57 298.79 119.57 283.16L108.5 283.16C108.5 297.05 108.5 305.73 108.5 309.2Z" id="c6FDETZCDK"></path><path d="M67.97 309.2C67.8 312.26 70.14 314.87 73.2 315.04C76.25 315.2 78.87 312.86 79.03 309.81C79.04 309.6 79.04 309.4 79.03 309.2C79.03 307.47 79.03 298.79 79.03 283.16L67.97 283.16C67.97 297.05 67.97 305.73 67.97 309.2Z" id="d2lSWA8BRM"></path><path d="M157.65 199.13C160.53 196.29 160.55 191.65 157.71 188.78C157.69 188.76 157.67 188.74 157.65 188.72C154.77 185.85 150.1 185.86 147.23 188.75C145.86 190.12 145.09 191.98 145.08 193.92C145.08 197.99 148.39 201.29 152.46 201.29C152.46 201.29 152.46 201.29 152.46 201.29C154.41 201.32 156.29 200.54 157.65 199.13Z" id="a5WXorNXhE"></path><path d="M146.93 309.2C146.93 312.25 149.41 314.73 152.46 314.73C155.51 314.73 157.98 312.25 157.98 309.2C157.98 309.2 157.98 309.2 157.98 309.2C157.98 307.47 157.98 298.79 157.98 283.16L146.93 283.16C146.93 297.05 146.93 305.73 146.93 309.2Z" id="d18FuzFd7O"></path><path d="M152.46 216.02C150.98 216 149.56 216.59 148.53 217.65C147.47 218.67 146.87 220.08 146.9 221.56C146.9 224.98 146.9 242.09 146.9 272.9L157.95 272.9C157.95 242.06 157.95 224.92 157.95 221.49C157.97 220.05 157.39 218.66 156.36 217.65C155.35 216.59 153.93 215.99 152.46 216.02Z" id="a7sTeOs5z"></path><path d="M246.71 216.03C241.36 216.03 198.62 216.03 193.27 216.03C191.79 216.01 190.37 216.6 189.35 217.67C188.28 218.68 187.69 220.1 187.71 221.57C187.71 225 187.71 242.1 187.71 272.9L198.78 272.9L198.78 227.13L224.57 227.13L224.57 272.9L235.62 272.9L235.62 227.13C242.26 227.13 245.95 227.13 246.69 227.13C254.81 227.13 261.4 233.72 261.4 241.84C261.4 243.91 261.4 254.27 261.4 272.9L272.47 272.9C272.47 254.27 272.47 243.91 272.47 241.84C272.59 234.98 269.87 228.37 264.95 223.58C260.17 218.66 253.57 215.93 246.71 216.03Z" id="a1YMV75YRX"></path><path d="M187.73 309.2C187.56 312.26 189.91 314.87 192.96 315.04C196.02 315.2 198.63 312.86 198.8 309.81C198.81 309.6 198.81 309.4 198.8 309.2C198.8 307.47 198.8 298.79 198.8 283.16L187.73 283.16C187.73 297.05 187.73 305.73 187.73 309.2Z" id="bJvZl0OXf"></path><path d="M224.59 309.2C224.57 310.68 225.16 312.1 226.22 313.13C227.24 314.19 228.66 314.79 230.13 314.76C233.16 314.78 235.64 312.34 235.66 309.3C235.66 309.27 235.66 309.25 235.66 309.22C235.66 307.48 235.66 298.8 235.66 283.16L224.61 283.16C224.6 297.05 224.59 305.73 224.59 309.2Z" id="d1dYnGDY3x"></path><path d="M261.43 309.2C261.27 312.26 263.61 314.87 266.67 315.04C269.72 315.2 272.33 312.86 272.5 309.81C272.51 309.6 272.51 309.4 272.5 309.2C272.5 307.47 272.5 298.79 272.5 283.16L261.43 283.16C261.43 297.05 261.43 305.73 261.43 309.2Z" id="cvqid9h10"></path><path d="M296.4 290.88C296.34 305.13 307.84 316.72 322.09 316.78C329.01 316.81 335.66 314.05 340.53 309.12C341.58 308 342.17 306.51 342.16 304.97C342.18 301.94 339.74 299.46 336.71 299.45C336.68 299.45 336.66 299.45 336.64 299.45C335.11 299.45 333.64 300.08 332.59 301.19C326.86 306.95 317.54 306.98 311.78 301.25C309 298.48 307.44 294.71 307.45 290.78C307.45 290.27 307.45 287.74 307.45 283.16L296.4 283.16C296.4 287.28 296.4 289.85 296.4 290.88Z" id="e2sQ53YPjr"></path><path d="M332.63 229.58C335.43 232.35 336.99 236.13 336.98 240.06C336.98 241.16 336.98 246.66 336.98 256.57C329.25 256.57 324.95 256.57 324.09 256.57C321.04 256.57 318.56 259.04 318.56 262.1C318.56 265.15 321.04 267.62 324.09 267.62C324.09 267.62 324.09 267.62 324.09 267.62C325.93 267.62 340.67 267.62 342.51 267.62C344.01 267.58 345.44 266.95 346.48 265.87C347.51 264.88 348.1 263.52 348.11 262.1C348.11 259.88 348.11 242.19 348.11 239.98C348.11 225.73 336.57 214.19 322.32 214.19C308.08 214.19 296.53 225.73 296.53 239.98C296.53 242.17 296.53 253.15 296.53 272.9L307.59 272.9C307.59 253.15 307.59 242.17 307.59 239.98C307.54 236.11 309.07 232.38 311.83 229.67C317.55 223.9 326.86 223.86 332.63 229.58Z" id="bXlNau8zZ"></path><path d="M370.15 309.3C370.15 312.35 372.62 314.83 375.67 314.83C378.72 314.83 381.2 312.35 381.2 309.3C381.2 309.3 381.2 309.3 381.2 309.3C381.2 307.56 381.2 298.84 381.2 283.15L370.15 283.15C370.15 297.1 370.15 305.81 370.15 309.3Z" id="f31cyAyGo"></path><path d="M392.26 227.05C393.77 227.08 395.21 226.49 396.27 225.42C397.33 224.39 397.92 222.97 397.9 221.49C397.93 220.02 397.34 218.6 396.27 217.59C395.22 216.51 393.77 215.92 392.26 215.95C380.06 215.97 370.17 225.86 370.15 238.07C370.15 240.39 370.15 252 370.15 272.9L381.2 272.9C381.2 252.05 381.2 240.47 381.2 238.15C381.14 235.2 382.32 232.37 384.43 230.32C386.48 228.19 389.31 227.01 392.26 227.05Z" id="e1E6iAvqF0"></path><path d="M420.13 221.69C420.02 221.79 419.91 221.9 419.81 222.02C418.77 223.04 418.18 224.43 418.17 225.89C418.15 228.92 420.6 231.4 423.63 231.41C423.65 231.41 423.68 231.41 423.7 231.41C425.16 231.45 426.57 230.85 427.57 229.78C430.35 226.92 434.18 225.32 438.16 225.35C442.1 225.28 445.89 226.85 448.62 229.68C451.41 232.43 452.99 236.18 453.01 240.09C453.01 242.28 453.01 253.22 453.01 272.9L464.05 272.9C464.05 253.21 464.05 242.27 464.05 240.08C464.13 233.19 461.39 226.57 456.47 221.74C446.45 211.69 430.18 211.67 420.13 221.69Z" id="aNimkhEg6"></path><path d="M453.07 303.68C444.24 303.68 439.34 303.68 438.36 303.68C430.23 303.68 423.65 297.09 423.65 288.97C423.65 288.58 423.65 286.65 423.65 283.16L412.6 283.16C412.6 286.63 412.6 288.55 412.6 288.93C412.6 303.18 424.14 314.74 438.39 314.74C440.42 314.74 456.63 314.74 458.66 314.74C460.13 314.77 461.55 314.18 462.57 313.11C463.63 312.08 464.22 310.66 464.2 309.19C464.2 307.45 464.2 298.78 464.2 283.16L453.15 283.16L453.07 303.68Z" id="a1eW3scRL5"></path><path d="M423.58 271.22C423.53 267.3 425.09 263.53 427.91 260.8C430.3 258.32 433.53 256.81 436.97 256.57C438.27 256.45 439.48 255.87 440.39 254.94C441.41 253.92 441.97 252.52 441.94 251.08C441.94 249.62 441.35 248.22 440.3 247.2C439.11 246.06 437.48 245.46 435.83 245.57C422.57 246.82 412.44 257.95 412.44 271.27C412.44 271.37 412.44 271.92 412.44 272.9L423.48 272.9C423.54 272 423.57 271.44 423.58 271.22Z" id="c1zMod1JMF"></path><path d="M189.32 273.24L272.48 283.16" id="b1OFmh9qYn"></path><path d="M270.93 273.1L187.73 283.16" id="d2F45pR4"></path><path d="M1.63 272.9L12.68 283.16" id="gE8AIqbU"></path><path d="M1.63 283.16L12.68 272.9" id="f9oXdWj341"></path><path d="" id="b1YUUfui0g"></path><path d="M79.02 272.9L79.02 283.16" id="d1mVqRUDAe"></path><path d="M108.5 272.9L108.5 283.16" id="b1dLx3tHW3"></path></defs><g><g><g><use xlink:href="#fXLLDpjN7" opacity="1" fill="#000000" fill-opacity="0"></use><g><use xlink:href="#fXLLDpjN7" opacity="1" fill-opacity="0" stroke="#231916" stroke-width="2" stroke-opacity="1"></use></g></g><g><use xlink:href="#gGH8eIOmv" opacity="1" fill="#000000" fill-opacity="0"></use><g><use xlink:href="#gGH8eIOmv" opacity="1" fill-opacity="0" stroke="#231916" stroke-width="2" stroke-opacity="1"></use></g></g><g><use xlink:href="#aPESWk7Zf" opacity="1" fill="#000000" fill-opacity="0"></use><g><use xlink:href="#aPESWk7Zf" opacity="1" fill-opacity="0" stroke="#231916" stroke-width="2" stroke-opacity="1"></use></g></g><g><use xlink:href="#aRuoT8pN" opacity="1" fill="#000000" fill-opacity="0"></use><g><use xlink:href="#aRuoT8pN" opacity="1" fill-opacity="0" stroke="#231916" stroke-width="2" stroke-opacity="1"></use></g></g><g><use xlink:href="#a6ifNz65Eg" opacity="1" fill="#231916" fill-opacity="1"></use><g><use xlink:href="#a6ifNz65Eg" opacity="1" fill-opacity="0" stroke="#000000" stroke-width="1" stroke-opacity="0"></use></g></g><g><use xlink:href="#aAgtYXuc" opacity="1" fill="#231916" fill-opacity="1"></use><g><use xlink:href="#aAgtYXuc" opacity="1" fill-opacity="0" stroke="#000000" stroke-width="1" stroke-opacity="0"></use></g></g><g><use xlink:href="#a1hoBhXAiG" opacity="1" fill="#000000" fill-opacity="0"></use><g><use xlink:href="#a1hoBhXAiG" opacity="1" fill-opacity="0" stroke="#231916" stroke-width="2" stroke-opacity="1"></use></g></g><g><use xlink:href="#a11VpCiecX" opacity="1" fill="#231916" fill-opacity="1"></use><g><use xlink:href="#a11VpCiecX" opacity="1" fill-opacity="0" stroke="#000000" stroke-width="1" stroke-opacity="0"></use></g></g><g><use xlink:href="#a3R7AxI9" opacity="1" fill="#231916" fill-opacity="1"></use><g><use xlink:href="#a3R7AxI9" opacity="1" fill-opacity="0" stroke="#000000" stroke-width="1" stroke-opacity="0"></use></g></g><g><use xlink:href="#e3sToSni5" opacity="1" fill="#000000" fill-opacity="0"></use><g><use xlink:href="#e3sToSni5" opacity="1" fill-opacity="0" stroke="#231916" stroke-width="2" stroke-opacity="1"></use></g></g><g><use xlink:href="#g1Lm7wM3h4" opacity="1" fill="#231916" fill-opacity="1"></use><g><use xlink:href="#g1Lm7wM3h4" opacity="1" fill-opacity="0" stroke="#000000" stroke-width="1" stroke-opacity="0"></use></g></g><g><use xlink:href="#b4nrzUaqj5" opacity="1" fill="#231916" fill-opacity="1"></use><g><use xlink:href="#b4nrzUaqj5" opacity="1" fill-opacity="0" stroke="#000000" stroke-width="1" stroke-opacity="0"></use></g></g><g><use xlink:href="#aOFKFcUdD" opacity="1" fill="#231916" fill-opacity="1"></use><g><use xlink:href="#aOFKFcUdD" opacity="1" fill-opacity="0" stroke="#000000" stroke-width="1" stroke-opacity="0"></use></g></g><g><use xlink:href="#i5PGfdvNsr" opacity="1" fill="#231916" fill-opacity="1"></use><g><use xlink:href="#i5PGfdvNsr" opacity="1" fill-opacity="0" stroke="#000000" stroke-width="1" stroke-opacity="0"></use></g></g><g><use xlink:href="#crqNxui6q" opacity="1" fill="#231916" fill-opacity="1"></use><g><use xlink:href="#crqNxui6q" opacity="1" fill-opacity="0" stroke="#000000" stroke-width="1" stroke-opacity="0"></use></g></g><g><use xlink:href="#fbZPdXfJsR" opacity="1" fill="#231916" fill-opacity="1"></use><g><use xlink:href="#fbZPdXfJsR" opacity="1" fill-opacity="0" stroke="#000000" stroke-width="1" stroke-opacity="0"></use></g></g><g><use xlink:href="#bdjF629qF" opacity="1" fill="#231916" fill-opacity="1"></use><g><use xlink:href="#bdjF629qF" opacity="1" fill-opacity="0" stroke="#000000" stroke-width="1" stroke-opacity="0"></use></g></g><g><use xlink:href="#b1NMe6SdyC" opacity="1" fill="#000000" fill-opacity="0"></use><g><use xlink:href="#b1NMe6SdyC" opacity="1" fill-opacity="0" stroke="#231916" stroke-width="2" stroke-opacity="1"></use></g></g><g><use xlink:href="#a2u6yO6x03" opacity="1" fill="#231916" fill-opacity="1"></use><g><use xlink:href="#a2u6yO6x03" opacity="1" fill-opacity="0" stroke="#000000" stroke-width="1" stroke-opacity="0"></use></g></g><g><use xlink:href="#b8KHglRWM" opacity="1" fill="#231916" fill-opacity="1"></use><g><use xlink:href="#b8KHglRWM" opacity="1" fill-opacity="0" stroke="#000000" stroke-width="1" stroke-opacity="0"></use></g></g></g><g><g><use xlink:href="#b2XrdMGGca" opacity="1" fill="#000000" fill-opacity="0"></use><g><use xlink:href="#b2XrdMGGca" opacity="1" fill-opacity="0" stroke="#231916" stroke-width="2" stroke-opacity="1"></use></g></g><g><use xlink:href="#a5vl2YsDHV" opacity="1" fill="#231916" fill-opacity="1"></use><g><use xlink:href="#a5vl2YsDHV" opacity="1" fill-opacity="0" stroke="#000000" stroke-width="1" stroke-opacity="0"></use></g></g><g><use xlink:href="#d29ZC6pMKL" opacity="1" fill="#231916" fill-opacity="1"></use><g><use xlink:href="#d29ZC6pMKL" opacity="1" fill-opacity="0" stroke="#000000" stroke-width="1" stroke-opacity="0"></use></g></g><g><use xlink:href="#b1M9N1GhL7" opacity="1" fill="#231916" fill-opacity="1"></use><g><use xlink:href="#b1M9N1GhL7" opacity="1" fill-opacity="0" stroke="#000000" stroke-width="1" stroke-opacity="0"></use></g></g><g><use xlink:href="#c6FDETZCDK" opacity="1" fill="#231916" fill-opacity="1"></use><g><use xlink:href="#c6FDETZCDK" opacity="1" fill-opacity="0" stroke="#000000" stroke-width="1" stroke-opacity="0"></use></g></g><g><use xlink:href="#d2lSWA8BRM" opacity="1" fill="#231916" fill-opacity="1"></use><g><use xlink:href="#d2lSWA8BRM" opacity="1" fill-opacity="0" stroke="#000000" stroke-width="1" stroke-opacity="0"></use></g></g><g><use xlink:href="#a5WXorNXhE" opacity="1" fill="#231916" fill-opacity="1"></use><g><use xlink:href="#a5WXorNXhE" opacity="1" fill-opacity="0" stroke="#000000" stroke-width="1" stroke-opacity="0"></use></g></g><g><use xlink:href="#d18FuzFd7O" opacity="1" fill="#231916" fill-opacity="1"></use><g><use xlink:href="#d18FuzFd7O" opacity="1" fill-opacity="0" stroke="#000000" stroke-width="1" stroke-opacity="0"></use></g></g><g><use xlink:href="#a7sTeOs5z" opacity="1" fill="#000000" fill-opacity="0"></use><g><use xlink:href="#a7sTeOs5z" opacity="1" fill-opacity="0" stroke="#231916" stroke-width="2" stroke-opacity="1"></use></g></g><g><use xlink:href="#a1YMV75YRX" opacity="1" fill="#231916" fill-opacity="1"></use><g><use xlink:href="#a1YMV75YRX" opacity="1" fill-opacity="0" stroke="#000000" stroke-width="1" stroke-opacity="0"></use></g></g><g><use xlink:href="#bJvZl0OXf" opacity="1" fill="#000000" fill-opacity="0"></use><g><use xlink:href="#bJvZl0OXf" opacity="1" fill-opacity="0" stroke="#231916" stroke-width="2" stroke-opacity="1"></use></g></g><g><use xlink:href="#d1dYnGDY3x" opacity="1" fill="#000000" fill-opacity="0"></use><g><use xlink:href="#d1dYnGDY3x" opacity="1" fill-opacity="0" stroke="#231916" stroke-width="2" stroke-opacity="1"></use></g></g><g><use xlink:href="#cvqid9h10" opacity="1" fill="#000000" fill-opacity="0"></use><g><use xlink:href="#cvqid9h10" opacity="1" fill-opacity="0" stroke="#231916" stroke-width="2" stroke-opacity="1"></use></g></g><g><use xlink:href="#e2sQ53YPjr" opacity="1" fill="#231916" fill-opacity="1"></use><g><use xlink:href="#e2sQ53YPjr" opacity="1" fill-opacity="0" stroke="#000000" stroke-width="1" stroke-opacity="0"></use></g></g><g><use xlink:href="#bXlNau8zZ" opacity="1" fill="#231916" fill-opacity="1"></use><g><use xlink:href="#bXlNau8zZ" opacity="1" fill-opacity="0" stroke="#000000" stroke-width="1" stroke-opacity="0"></use></g></g><g><use xlink:href="#f31cyAyGo" opacity="1" fill="#231916" fill-opacity="1"></use><g><use xlink:href="#f31cyAyGo" opacity="1" fill-opacity="0" stroke="#000000" stroke-width="1" stroke-opacity="0"></use></g></g><g><use xlink:href="#e1E6iAvqF0" opacity="1" fill="#231916" fill-opacity="1"></use><g><use xlink:href="#e1E6iAvqF0" opacity="1" fill-opacity="0" stroke="#000000" stroke-width="1" stroke-opacity="0"></use></g></g><g><use xlink:href="#aNimkhEg6" opacity="1" fill="#231916" fill-opacity="1"></use><g><use xlink:href="#aNimkhEg6" opacity="1" fill-opacity="0" stroke="#000000" stroke-width="1" stroke-opacity="0"></use></g></g><g><use xlink:href="#a1eW3scRL5" opacity="1" fill="#231916" fill-opacity="1"></use><g><use xlink:href="#a1eW3scRL5" opacity="1" fill-opacity="0" stroke="#000000" stroke-width="1" stroke-opacity="0"></use></g></g><g><use xlink:href="#c1zMod1JMF" opacity="1" fill="#000000" fill-opacity="0"></use><g><use xlink:href="#c1zMod1JMF" opacity="1" fill-opacity="0" stroke="#231916" stroke-width="2" stroke-opacity="1"></use></g></g><g><use xlink:href="#b1OFmh9qYn" opacity="1" fill="#000000" fill-opacity="0"></use><g><use xlink:href="#b1OFmh9qYn" opacity="1" fill-opacity="0" stroke="#231916" stroke-width="2" stroke-opacity="1"></use></g></g><g><use xlink:href="#d2F45pR4" opacity="1" fill="#000000" fill-opacity="0"></use><g><use xlink:href="#d2F45pR4" opacity="1" fill-opacity="0" stroke="#231916" stroke-width="2" stroke-opacity="1"></use></g></g><g><use xlink:href="#gE8AIqbU" opacity="1" fill="#000000" fill-opacity="0"></use><g><use xlink:href="#gE8AIqbU" opacity="1" fill-opacity="0" stroke="#231916" stroke-width="2" stroke-opacity="1"></use></g></g><g><use xlink:href="#f9oXdWj341" opacity="1" fill="#000000" fill-opacity="0"></use><g><use xlink:href="#f9oXdWj341" opacity="1" fill-opacity="0" stroke="#231916" stroke-width="2" stroke-opacity="1"></use></g></g><g><use xlink:href="#b1YUUfui0g" opacity="1" fill="#000000" fill-opacity="0"></use><g><use xlink:href="#b1YUUfui0g" opacity="1" fill-opacity="0" stroke="#231916" stroke-width="1" stroke-opacity="1"></use></g></g><g><use xlink:href="#d1mVqRUDAe" opacity="1" fill="#000000" fill-opacity="0"></use><g><use xlink:href="#d1mVqRUDAe" opacity="1" fill-opacity="0" stroke="#231916" stroke-width="2" stroke-opacity="1"></use></g></g><g><use xlink:href="#b1dLx3tHW3" opacity="1" fill="#000000" fill-opacity="0"></use><g><use xlink:href="#b1dLx3tHW3" opacity="1" fill-opacity="0" stroke="#231916" stroke-width="2" stroke-opacity="1"></use></g></g></g></g></svg>